<svg width="41" height="40" viewBox="0 0 41 40" fill="none" xmlns="http://www.w3.org/2000/svg">
<g clip-path="url(#clip0_3091_5697)">
<path d="M20.0089 0.00390625H19.9989C8.97361 0.00390625 0.00793457 8.97208 0.00793457 19.9998C0.00793457 24.3739 1.41765 28.4281 3.81466 31.7199L1.32267 39.1484L9.0086 36.6914C12.1705 38.786 15.9422 39.9958 20.0089 39.9958C31.0341 39.9958 39.9998 31.0251 39.9998 19.9998C39.9998 8.97458 31.0341 0.00390625 20.0089 0.00390625ZM31.644 28.2407C31.1616 29.6029 29.247 30.7327 27.7198 31.0626C26.675 31.285 25.3103 31.4625 20.7162 29.5579C14.8399 27.1234 11.0557 21.1521 10.7607 20.7647C10.4783 20.3773 8.38623 17.6028 8.38623 14.7334C8.38623 11.864 9.84343 10.4668 10.4308 9.8669C10.9132 9.3745 11.7106 9.14954 12.4754 9.14954C12.7228 9.14954 12.9453 9.16204 13.1453 9.17204C13.7326 9.19703 14.0276 9.23203 14.415 10.1593C14.8974 11.3216 16.0722 14.191 16.2121 14.486C16.3546 14.7809 16.4971 15.1808 16.2971 15.5682C16.1097 15.9682 15.9447 16.1456 15.6498 16.4856C15.3548 16.8255 15.0749 17.0854 14.7799 17.4504C14.51 17.7678 14.205 18.1077 14.545 18.6951C14.8849 19.27 16.0597 21.1871 17.7893 22.7268C20.0214 24.7139 21.831 25.3487 22.4784 25.6187C22.9608 25.8187 23.5356 25.7712 23.8881 25.3962C24.3355 24.9138 24.8879 24.114 25.4503 23.3267C25.8502 22.7618 26.3551 22.6918 26.885 22.8917C27.4249 23.0792 30.2818 24.4914 30.8692 24.7839C31.4565 25.0788 31.844 25.2188 31.9864 25.4662C32.1264 25.7137 32.1264 26.8759 31.644 28.2407Z" fill="white"/>
</g>
<defs>
<clipPath id="clip0_3091_5697">
<rect width="40" height="40" fill="white" transform="translate(0.00372314 -0.000244141)"/>
</clipPath>
</defs>
</svg>
